# xmcd
#
# Track frame offsets:
#	150
#	20790
#	42528
#	70733
#	87380
#	101420
#	122583
#	152663
#	177125
#	188540
#	214813
#	263923
#
# Disc length: 3709 seconds
#
# Revision: 1
# Processed by: cddbd v1.5.1PL0 Copyright (c) Steve Scherf et al.
# Submitted via: CDex 1.50Beta5
#
DISCID=a00e7b0c
DTITLE=Various Artist - ふたりのクラシック
DYEAR=1900
DGENRE=
TTITLE0=ヤルヴィ・エーテボリSO/ホフマンの舟歌
TTITLE1=ヤルヴィ・エーテボリSO/タイスの瞑想曲
TTITLE2=ブルンナー・ハーゲンSQ/クラリネット五重奏曲
TTITLE3=ルイサダ/ワルツ第9番
TTITLE4=ハーゲンSQ/おお、ただひとりのいとしい人よ
TTITLE5=ピリス/ピアノソナタ第12番
TTITLE6=オルフェウス室内O/菊
TTITLE7=マイスキー・ギリロフ/アヴェマリア
TTITLE8=セルシェル/ポートレート
TTITLE9=ジルベルシュテイン/間奏曲
TTITLE10=セルシェル・オルフェウス室内O/アランフエス協奏曲
TTITLE11=マイスキー・ギリロフ/鳥の歌
EXTD=
EXTT0=
EXTT1=
EXTT2=
EXTT3=
EXTT4=
EXTT5=
EXTT6=
EXTT7=
EXTT8=
EXTT9=
EXTT10=
EXTT11=
PLAYORDER=
